<mxfile host="Electron" agent="Mozilla/5.0 (Windows NT 10.0; Win64; x64) AppleWebKit/537.36 (KHTML, like Gecko) draw.io/25.0.1 Chrome/128.0.6613.186 Electron/32.2.6 Safari/537.36" version="25.0.1">
  <diagram name="第 1 页" id="ewl9boTtj5eG1xmZE2dz">
    <mxGraphModel dx="169" dy="108" grid="1" gridSize="3.937" guides="1" tooltips="1" connect="1" arrows="1" fold="1" page="1" pageScale="1" pageWidth="48" pageHeight="48" background="#EBEBEB" math="0" shadow="0">
      <root>
        <mxCell id="0" />
        <mxCell id="1" parent="0" />
        <mxCell id="5csoxPmDnAiXBK03Bv17-2" value="" style="ellipse;whiteSpace=wrap;html=1;aspect=fixed;fillColor=none;strokeColor=#404040;strokeWidth=2;" parent="1" vertex="1">
          <mxGeometry x="18" y="3.94" width="11.81" height="11.81" as="geometry" />
        </mxCell>
        <mxCell id="5csoxPmDnAiXBK03Bv17-3" value="" style="ellipse;whiteSpace=wrap;html=1;aspect=fixed;fillColor=#404040;strokeColor=#404040;strokeWidth=2;" parent="1" vertex="1">
          <mxGeometry x="3.937000000000001" y="15.747" width="11.81" height="11.81" as="geometry" />
        </mxCell>
        <mxCell id="5csoxPmDnAiXBK03Bv17-4" value="" style="ellipse;whiteSpace=wrap;html=1;aspect=fixed;fillColor=#404040;strokeColor=#404040;strokeWidth=2;" parent="1" vertex="1">
          <mxGeometry x="7.8740000000000006" y="31.494" width="11.81" height="11.81" as="geometry" />
        </mxCell>
        <mxCell id="5csoxPmDnAiXBK03Bv17-5" value="" style="ellipse;whiteSpace=wrap;html=1;aspect=fixed;fillColor=#404040;strokeColor=#404040;strokeWidth=2;" parent="1" vertex="1">
          <mxGeometry x="27.561" y="31.490999999999996" width="11.81" height="11.81" as="geometry" />
        </mxCell>
        <mxCell id="5csoxPmDnAiXBK03Bv17-6" value="" style="ellipse;whiteSpace=wrap;html=1;aspect=fixed;fillColor=#404040;strokeColor=#404040;strokeWidth=2;" parent="1" vertex="1">
          <mxGeometry x="31.498" y="15.747999999999998" width="11.81" height="11.81" as="geometry" />
        </mxCell>
      </root>
    </mxGraphModel>
  </diagram>
</mxfile>
